<?xml version="1.0" encoding="utf-8"?>
<!-- Generator: Adobe Illustrator 21.0.0, SVG Export Plug-In . SVG Version: 6.00 Build 0)  -->
<svg version="1.1" id="Layer_1" xmlns="http://www.w3.org/2000/svg" xmlns:xlink="http://www.w3.org/1999/xlink" x="0px" y="0px"
	 viewBox="0 0 400 300" style="enable-background:new 0 0 400 300;" xml:space="preserve">
<style type="text/css">
	.st0{fill:#415594;}
	.st1{fill:#99A9DE;}
	.st2{fill:#6678B3;}
</style>
<g transform="translate(57 30)">
	<polygon class="st0" points="150,205 164,228 143,240 	"/>
	<polygon class="st0" points="143,235 158,205 143,205 	"/>
	<polygon class="st0" points="91,52 195,52 143,192 	"/>
	<polygon class="st1" points="120,129 85,177 88,151 	"/>
	<polygon class="st1" points="166,129 201,177 198,151 	"/>
	<polygon class="st0" points="111,85 176,85 189,125 144,150 97,125 	"/>
	<polygon class="st1" points="113,52 173,52 173,101 113,101 	"/>
	<polygon class="st1" points="108,14 178,14 195,52 178,66 108,66 91,52 	"/>
	<polygon class="st2" points="108,14 136,14 178,14 143,49 	"/>
	<polygon class="st2" points="179,65 173,101 143,49 	"/>
	<polygon class="st2" points="107,65 113,101 143,49 	"/>
	<polygon class="st2" points="113,101 173,101 143,240 	"/>
	<polygon class="st0" points="0,52 18,49 71,106 17,95 	"/>
	<polygon class="st0" points="97,94 87,123 74.5,93.5 81,52 	"/>
	<polygon class="st1" points="29.2,8.9 23,14 0,52 81,52 	"/>
	<polygon class="st2" points="87,123 0,52 81,52 	"/>
	<polygon class="st2" points="98,14 81,52 23,14 40,0 	"/>
	<g transform="matrix(-1 0 0 1 286 0)">
		<polygon class="st0" points="0,52 18,49 71,106 17,95 		"/>
		<polygon class="st0" points="97,94 87,123 74.5,93.5 81,52 		"/>
		<polygon class="st1" points="29.2,8.9 23,14 0,52 81,52 		"/>
		<polygon class="st2" points="87,123 0,52 81,52 		"/>
		<polygon class="st2" points="98,14 81,52 23,14 40,0 		"/>
	</g>
</g>
</svg>
