<svg xmlns="http://www.w3.org/2000/svg" width="400" height="300" style="background:#2c3963"><g fill="none" fill-rule="evenodd"><path fill="#415594" d="M207 235l14 23-21 12z"/><path fill="#415594" d="M200 265l15-30h-15zM148 82h104l-52 140z"/><path fill="#99A9DE" d="M177 159l-35 48 3-26z"/><path fill="#FFF" d="M177 160l-32 21 12-34z"/><path fill="#99A9DE" d="M223 159l35 48-3-26z"/><path fill="#FFF" d="M223 160l32 21-12-34z"/><path fill="#415594" d="M168 115h65l13 40-45 25-47-25z"/><path fill="#99A9DE" d="M170 82h60v49h-60z"/><path fill="#99A9DE" d="M165 44h70l17 38-17 14h-70l-17-14z"/><path fill="#6678B3" d="M165 44h70l-35 35zM236 95l-6 36-30-52zM164 95l6 36 30-52zM170 131h60l-30 139z"/><path fill="#415594" d="M57 82l18-3 53 57-54-11zM154 124l-10 29-12.494-29.507L138 82z"/><path fill="#99A9DE" d="M86.159 38.898L80.002 44 57 82h81z"/><path fill="#6678B3" d="M144 153L57 82h81zM155 44l-17 38-58-38 17-14z"/><path fill="#415594" d="M343 82l-18-3-53 57 54-11zM246 124l10 29 12.494-29.507L262 82z"/><path fill="#99A9DE" d="M313.841 38.898L319.998 44 343 82h-81z"/><path fill="#6678B3" d="M256 153l87-71h-81zM245 44l17 38 58-38-17-14z"/></g></svg>